<svg xmlns="http://www.w3.org/2000/svg" viewBox="0 0 1500 760"><rect width="1500" height="760" fill="#f8fbfd"/><text x="55" y="65" font-family="Arial" font-size="36" font-weight="700" fill="#0b2a3d">Neurulation — Sequence</text><g transform="translate(60,160)">
<g><rect width="320" height="360" rx="24" fill="#fff" stroke="#cbdde5" stroke-width="4"/><path d="M70 220 Q160 160 250 220" fill="none" stroke="#7c3aed" stroke-width="28"/><path d="M160 105 V165" stroke="#14b8a6" stroke-width="14"/><text x="145" y="330" font-family="Arial" font-size="28">1</text></g>
<g transform="translate(360,0)"><rect width="320" height="360" rx="24" fill="#fff" stroke="#cbdde5" stroke-width="4"/><path d="M65 235 Q110 140 160 215 Q210 140 255 235" fill="none" stroke="#7c3aed" stroke-width="28"/><text x="145" y="330" font-family="Arial" font-size="28">2</text></g>
<g transform="translate(720,0)"><rect width="320" height="360" rx="24" fill="#fff" stroke="#cbdde5" stroke-width="4"/><path d="M80 235 Q125 135 160 175 Q195 135 240 235" fill="none" stroke="#7c3aed" stroke-width="28"/><text x="145" y="330" font-family="Arial" font-size="28">3</text></g>
<g transform="translate(1080,0)"><rect width="320" height="360" rx="24" fill="#fff" stroke="#cbdde5" stroke-width="4"/><circle cx="160" cy="205" r="65" fill="#d7c9f4" stroke="#7c3aed" stroke-width="10"/><path d="M40 120 H280" stroke="#f0b8c8" stroke-width="20"/><text x="145" y="330" font-family="Arial" font-size="28">4</text></g>
</g><text x="55" y="700" font-family="Arial" font-size="18" fill="#6b7f8c">Notochordal induction → neural plate → groove/folds → closed neural tube beneath surface ectoderm.</text></svg>